<svg width="70" height="70" fill="none" stroke="#e6e6e6" stroke-linecap="round" stroke-linejoin="round" stroke-width="1.5" viewBox="0 0 24 24" xmlns="http://www.w3.org/2000/svg">
  <path d="M3 21 7.337 8.632l8.163 8.387L3 21Z"></path>
  <path d="M11.5 9.5 14 7c1.333-1.333 1.5-2.5.5-3.5"></path>
  <path d="M14.5 12.5 17 10c1.667-1.667 3.333-1.667 5 0"></path>
  <path fill="#e6e6e6" stroke="none" d="M10 3.5a1 1 0 1 0 0-2 1 1 0 0 0 0 2Z"></path>
  <path fill="#e6e6e6" stroke="none" d="M21 3a1 1 0 1 0 0-2 1 1 0 0 0 0 2Z"></path>
  <path fill="#e6e6e6" stroke="none" d="M21 14.5a1 1 0 1 0 0-2 1 1 0 0 0 0 2Z"></path>
  <path fill="#e6e6e6" stroke="none" d="M19.5 19a1 1 0 1 0 0-2 1 1 0 0 0 0 2Z"></path>
</svg>